PathFileType	4	(X/Y/Z)	c:/Users/goper/Files/vsCode/490R/osim_files/A03/A03_Static01.trc
DataRate	CameraRate	NumFrames	NumMarkers	Units                	OrigDataRate	OrigDataStartFrame	OrigNumFrames
250.00	250.00	10	36	mm	250.0	1256	1674
                Frame#	Time	LPSIS			LASIS			LTH1			LTH2			LTH3			LTH4			LLFE			LMFE			LSH1			LSH2			LSH3			LSH4			LLMAL			LMMAL			LCAL			LMTP5			LTOE			LMTP1			RPSIS			RASIS			RTH1			RTH2			RTH3			RTH4			RLFE			RMFE			RSH1			RSH2			RSH3			RSH4			RLMAL			RMMAL			RCAL			RMTP1			RTOE			RMTP5		
		X1	Y1	Z1	X2	Y2	Z2	X3	Y3	Z3	X4	Y4	Z4	X5	Y5	Z5	X6	Y6	Z6	X7	Y7	Z7	X8	Y8	Z8	X9	Y9	Z9	X10	Y10	Z10	X11	Y11	Z11	X12	Y12	Z12	X13	Y13	Z13	X14	Y14	Z14	X15	Y15	Z15	X16	Y16	Z16	X17	Y17	Z17	X18	Y18	Z18	X19	Y19	Z19	X20	Y20	Z20	X21	Y21	Z21	X22	Y22	Z22	X23	Y23	Z23	X24	Y24	Z24	X25	Y25	Z25	X26	Y26	Z26	X27	Y27	Z27	X28	Y28	Z28	X29	Y29	Z29	X30	Y30	Z30	X31	Y31	Z31	X32	Y32	Z32	X33	Y33	Z33	X34	Y34	Z34	X35	Y35	Z35	X36	Y36	Z36

1256	5.02000	-353.33838	1069.17883	423.33551	-112.82316	990.07562	313.00952	-180.51605	660.06738	242.65215	-172.93124	617.27808	242.23535	-118.91196	663.85480	254.86845	-121.21927	619.93884	254.00374	-170.98294	561.46283	247.37389	-141.70029	530.51807	399.05273	-227.68687	478.93265	241.84436	-233.07120	430.71210	237.73390	-166.60437	464.16333	240.61676	-182.42416	418.96396	240.75899	-282.93692	105.42465	230.07346	-263.12946	104.99129	322.38632	-349.68884	85.84547	288.44077	-139.03813	42.02976	197.82201	-101.03864	68.84225	263.86099	-126.83364	48.14285	311.51303	-353.95154	1071.46448	492.23499	-121.97500	989.03986	620.67126	-227.08319	661.78510	690.48584	-225.51282	617.06152	687.12659	-166.75298	657.31879	697.65253	-171.98500	613.46851	693.24469	-202.25299	549.60651	682.03668	-141.63933	541.23700	570.49390	-259.64993	487.79767	678.41968	-268.58948	449.55984	695.04681	-201.67097	475.82806	696.76581	-219.99147	434.39923	710.45276	-281.79715	130.10960	701.12158	-230.82809	118.34501	623.01337	-332.75604	87.56716	647.19574	-120.28578	49.65255	630.03210	-95.39005	71.26537	680.80933	-133.46043	40.77836	747.87134
1257	5.02400	-353.27933	1069.14636	423.33908	-112.77975	990.07257	313.01251	-180.53221	660.07782	242.65511	-172.90541	617.26337	242.21899	-118.90190	663.85522	254.85307	-121.20115	619.94403	253.98203	-170.97002	561.45367	247.35118	-141.69052	530.50885	399.05869	-227.65584	478.92731	241.83533	-233.06577	430.71552	237.73587	-166.61183	464.16644	240.62468	-182.43463	418.95444	240.74265	-282.92090	105.41797	230.06554	-263.12198	104.98878	322.39038	-349.69876	85.87055	288.45236	-138.84874	42.14463	197.80380	-101.03065	68.84402	263.85580	-126.84674	48.15690	311.51489	-353.89066	1071.44751	492.22409	-121.92718	989.04974	620.67889	-227.05919	661.79388	690.49957	-225.49515	617.05359	687.12616	-166.74376	657.32343	697.64661	-171.95798	613.46814	693.24475	-202.24767	549.60175	682.03149	-141.60545	541.23730	570.47729	-259.66318	487.78448	678.41144	-268.60632	449.56058	695.05096	-201.66786	475.82211	696.77997	-219.99265	434.38968	710.43860	-281.79892	130.11710	701.12054	-230.79791	118.34590	623.01569	-332.76498	87.58808	647.19635	-120.28518	49.65792	630.03522	-95.39507	71.26302	680.82214	-133.47122	40.77611	747.86487
1258	5.02800	-353.28873	1069.16370	423.35025	-112.76458	990.07373	313.02390	-180.48615	660.08130	242.64986	-172.90422	617.26514	242.22928	-118.85928	663.87738	254.85214	-121.19222	619.94928	253.98703	-170.95869	561.43005	247.36166	-141.69499	530.49408	399.07239	-227.65746	478.91595	241.83719	-233.21387	430.80676	237.84200	-166.60553	464.26462	240.53865	-182.39066	418.98087	240.73502	-282.92642	105.42891	230.07274	-263.13873	104.99757	322.39725	-349.69852	85.86753	288.43976	-138.85822	42.15614	197.80293	-101.04329	68.81448	263.86499	-126.82404	48.16198	311.49185	-353.85550	1071.45117	492.23193	-121.90611	989.05048	620.68274	-227.05017	661.80359	690.49420	-225.51108	617.06818	687.10693	-166.75011	657.29315	697.61517	-171.96623	613.45996	693.22546	-202.25038	549.58112	682.06055	-141.59062	541.24042	570.47113	-259.64603	487.79025	678.40588	-268.60583	449.56213	695.03455	-201.68625	475.82135	696.76105	-219.98279	434.40179	710.46124	-282.01035	130.16153	701.18756	-230.83537	118.34693	623.01263	-332.79324	87.57989	647.19897	-120.29855	49.65453	630.02014	-95.39111	71.25789	680.82855	-133.48192	40.78237	747.87805
1259	5.03200	-353.26471	1069.14270	423.35684	-112.73180	990.07324	313.01102	-180.49672	660.07684	242.64938	-172.89047	617.26703	242.22769	-118.85641	663.88440	254.84354	-121.18816	619.95374	253.98187	-170.93787	561.44183	247.36093	-141.64981	530.51324	399.05148	-227.63879	478.92725	241.83609	-232.74748	430.88049	237.89774	-166.59673	464.26819	240.53178	-182.41382	418.96054	240.74272	-282.94012	105.43027	230.07501	-263.13654	104.99154	322.39297	-349.71701	85.85724	288.45062	-139.06703	42.03630	197.81325	-101.05597	68.84016	263.86188	-126.84148	48.16239	311.49298	-353.81543	1071.43787	492.21191	-121.87046	989.03607	620.65894	-227.05009	661.78394	690.48004	-225.48637	617.05090	687.11603	-166.71117	657.28955	697.60645	-171.93861	613.47723	693.21918	-202.24539	549.59192	682.03369	-141.56201	541.25409	570.47760	-259.64868	487.79858	678.39154	-268.57928	449.55548	695.02631	-201.65335	475.81274	696.75140	-219.99162	434.40125	710.45142	-281.99481	130.17250	701.18280	-230.82108	118.33279	622.99719	-332.78561	87.58543	647.18854	-120.29408	49.65852	630.01929	-95.38492	71.26102	680.81586	-133.48161	40.77492	747.87335
1260	5.03600	-353.21188	1069.11804	423.36087	-112.70165	990.07336	313.01239	-180.48593	660.08466	242.65277	-172.89470	617.26453	242.23021	-118.82717	663.87555	254.83083	-121.15452	619.95862	253.98128	-170.92897	561.43817	247.35471	-141.59525	530.54163	399.04269	-227.65451	478.92755	241.84863	-233.19397	430.79623	237.84166	-166.61887	464.24579	240.54309	-182.40292	418.96066	240.74394	-282.92581	105.43214	230.06635	-263.14462	104.98653	322.37433	-349.68829	85.85712	288.44400	-139.04585	42.02522	197.81395	-101.04371	68.85426	263.88446	-126.82277	48.17105	311.50189	-353.81613	1071.41809	492.21655	-121.81511	989.05475	620.65741	-226.99922	661.77911	690.49493	-225.45082	617.04974	687.10980	-166.70444	657.30896	697.60919	-171.91255	613.47284	693.21814	-202.21036	549.57269	682.03998	-141.52324	541.25586	570.48456	-259.64676	487.79611	678.40381	-268.56842	449.54523	695.02631	-201.67027	475.80032	696.76587	-219.97086	434.39597	710.44196	-281.99557	130.15776	701.16901	-230.81148	118.33928	623.00781	-332.78214	87.58023	647.18903	-120.29208	49.68135	630.01935	-95.37928	71.27873	680.81787	-133.35535	40.96083	747.98724
1261	5.04000	-353.17526	1069.10510	423.35834	-112.68903	990.06250	313.03131	-180.47165	660.06805	242.65558	-172.86276	617.26099	242.21835	-118.82261	663.86487	254.83810	-121.14953	619.95166	253.99390	-170.91281	561.43689	247.35590	-141.60396	530.52374	399.03140	-227.63335	478.92856	241.84401	-232.72098	430.87848	237.90652	-166.57440	464.24866	240.54865	-182.40543	418.96158	240.72945	-282.94986	105.42760	230.07402	-263.13962	104.97637	322.39621	-349.71637	85.86448	288.46307	-139.06787	42.02782	197.81407	-101.02840	68.84509	263.86258	-126.82917	48.16647	311.50281	-353.75714	1071.42163	492.21622	-121.79018	989.04449	620.66467	-226.99567	661.77448	690.48999	-225.44167	617.03418	687.11597	-166.67531	657.29193	697.61511	-171.90079	613.45410	693.22247	-202.23253	549.55371	682.04675	-141.53297	541.23383	570.48224	-259.62820	487.78381	678.40222	-268.56702	449.53592	695.03351	-201.64194	475.79010	696.76666	-219.97760	434.37347	710.43689	-282.00864	130.14491	701.17059	-230.82593	118.32514	623.01587	-332.78983	87.58054	647.21057	-120.29367	49.68037	630.02032	-95.38693	71.26860	680.81439	-133.49037	40.76906	747.87970
1262	5.04400	-353.12259	1069.10010	423.35696	-112.66788	990.04523	313.01608	-180.44424	660.07397	242.66119	-172.87430	617.25647	242.23772	-118.78964	663.86292	254.83936	-121.13767	619.94275	253.98663	-170.90950	561.43988	247.35568	-141.58160	530.52930	399.04242	-227.62074	478.92938	241.85211	-232.53862	430.74493	237.81339	-166.53912	464.17850	240.62418	-182.39041	418.95847	240.74333	-282.95602	105.42972	230.07837	-263.11115	104.99361	322.41476	-349.69730	85.85323	288.44864	-138.87032	42.14383	197.79131	-101.00646	68.86558	263.86078	-126.83350	48.16148	311.50467	-353.71405	1071.42896	492.23935	-121.75691	989.02118	620.64990	-226.93872	661.75702	690.48511	-225.40421	617.03259	687.12073	-166.64023	657.29041	697.59991	-171.86539	613.44849	693.22797	-202.19453	549.57776	682.03821	-141.49968	541.24554	570.46844	-259.59805	487.77979	678.41199	-268.52414	449.51984	695.03888	-201.63281	475.78415	696.76941	-219.93602	434.39337	710.45386	-281.81943	130.09319	701.10425	-230.80849	118.32999	623.02783	-332.77930	87.56663	647.19971	-120.28831	49.67299	630.01941	-95.37488	71.28502	680.82916	-133.49985	40.75106	747.87775
1263	5.04800	-354.69119	1069.39050	423.88345	-112.61320	990.03198	313.02423	-180.43103	660.07410	242.66797	-172.86060	617.25818	242.22859	-118.77278	663.85883	254.84132	-121.12505	619.92596	253.98083	-170.87747	561.43744	247.34872	-141.58566	530.51111	399.04929	-227.60953	478.91895	241.84338	-232.50301	430.74875	237.80623	-166.53111	464.17603	240.61159	-182.36229	418.96945	240.73540	-282.94376	105.43789	230.07341	-263.11804	104.98348	322.39929	-349.71060	85.87751	288.45950	-139.07047	42.02965	197.81284	-101.04475	68.83271	263.85898	-126.81665	48.15952	311.49774	-353.65302	1071.39331	492.21808	-121.73840	988.99805	620.66675	-226.90111	661.77386	690.49585	-225.39560	617.02972	687.12628	-166.63304	657.26288	697.61340	-171.84944	613.44330	693.22809	-202.13292	549.55615	682.04077	-141.49437	541.21729	570.46753	-259.57635	487.77560	678.40289	-268.50998	449.52963	695.04370	-201.61151	475.78568	696.76984	-219.94052	434.37961	710.44965	-281.79593	130.08539	701.09418	-230.81310	118.34046	623.01184	-332.77701	87.59751	647.18951	-120.30899	49.66013	630.02795	-95.38312	71.26098	680.82758	-133.36002	40.94042	747.99432
1264	5.05200	-353.09164	1069.12854	423.36264	-112.58562	990.02875	313.00766	-180.40680	660.04974	242.65762	-172.83371	617.25806	242.22365	-118.76296	663.84778	254.83150	-121.10744	619.92828	253.97581	-170.86366	561.43793	247.35112	-141.59409	530.47650	399.04202	-227.59673	478.91385	241.84615	-232.51341	430.74802	237.81448	-166.51505	464.16434	240.61639	-182.35033	418.97131	240.75427	-282.94479	105.43349	230.06537	-263.10458	104.98930	322.41663	-349.68182	85.85325	288.45938	-139.06657	42.02989	197.81314	-101.06113	68.81796	263.86346	-126.83620	48.15290	311.50665	-353.63770	1071.41626	492.22156	-121.73788	988.99316	620.66260	-226.90628	661.77924	690.48578	-225.36325	617.04077	687.12598	-166.60672	657.26910	697.60980	-171.83141	613.41943	693.23572	-202.15804	549.57336	682.03900	-141.45773	541.20538	570.47150	-259.55502	487.78555	678.42261	-268.51083	449.53458	695.02374	-201.58937	475.78967	696.76678	-219.90707	434.37601	710.44781	-281.98044	130.17447	701.18872	-230.66650	118.37406	622.95038	-332.78699	87.58793	647.21887	-120.29186	49.64227	630.03210	-95.39602	71.24260	680.84662	-133.49980	40.77145	747.88397
1265	5.05600	-353.07169	1069.10999	423.37296	-112.55430	990.02087	313.00488	-180.38591	660.05579	242.65315	-172.81534	617.25000	242.22232	-118.73810	663.83917	254.82953	-121.08575	619.92645	253.97739	-170.84825	561.41754	247.35631	-141.57417	530.47534	399.04776	-227.59900	478.90833	241.85280	-232.50665	430.75204	237.80202	-166.50409	464.16489	240.61462	-182.33688	418.96585	240.74619	-282.95120	105.42393	230.07481	-263.13272	104.98517	322.41351	-349.68207	85.84281	288.45212	-139.04388	42.02738	197.80893	-101.06159	68.79283	263.84271	-126.83083	48.15821	311.50125	-353.57657	1071.40991	492.22153	-121.66599	989.00946	620.66278	-226.90482	661.77783	690.48212	-225.35237	617.03467	687.13055	-166.57372	657.26733	697.61163	-171.80800	613.43402	693.23590	-202.13644	549.57324	682.04919	-141.46509	541.20325	570.46912	-259.54279	487.77069	678.41577	-268.50089	449.53760	695.02631	-201.57777	475.79498	696.76367	-219.89360	434.38263	710.44653	-281.97543	130.15236	701.19434	-230.81927	118.34428	623.01678	-332.78525	87.57641	647.21014	-120.28199	49.65751	630.02075	-95.38602	71.24992	680.85004	-133.49246	40.76885	747.88751
